<svg aria-hidden="true" style="position: absolute; width: 0; height: 0; overflow: hidden;" version="1.1" xmlns="http://www.w3.org/2000/svg" xmlns:xlink="http://www.w3.org/1999/xlink">
<defs>
<symbol id="frm_views_calendar_icon" viewBox="0 0 14 16" fill="none">
    <title>calendar</title>
    <path d="M.375 6h13.25c.206 0 .375.169.375.375V14.5a1.5 1.5 0 01-1.5 1.5h-11A1.5 1.5 0 010 14.5V6.375C0 6.169.169 6 .375 6zM14 4.625V3.5A1.5 1.5 0 0012.5 2H11V.375A.376.376 0 0010.625 0h-1.25A.376.376 0 009 .375V2H5V.375A.376.376 0 004.625 0h-1.25A.376.376 0 003 .375V2H1.5A1.5 1.5 0 000 3.5v1.125C0 4.831.169 5 .375 5h13.25A.376.376 0 0014 4.625z" fill="#fff"/>
</symbol>
<symbol id="frm_views_filter_icon" viewBox="0 0 20 20" fill="none">
    <title>filter</title>
    <path d="M18.333 2.5H1.666l6.667 7.883v5.45l3.333 1.667v-7.117L18.333 2.5z" stroke="#4199FD" stroke-width="1.5" stroke-linecap="round" stroke-linejoin="round"/>
</symbol>
<symbol id="frm_views_sort_icon" viewBox="0 0 20 20" fill="none">
    <title>filter</title>
    <path d="M16.667 10H8.334M16.667 5H3.334M16.667 15h-3.333" stroke="#4199FD" stroke-width="1.5" stroke-linecap="round" stroke-linejoin="round"/>
</symbol>
<symbol id="frm_views_droplet_icon" viewBox="0 0 20 20" fill="none">
    <title>droplet</title>
    <path d="M10 2.242l4.717 4.717a6.667 6.667 0 11-9.425 0L10 2.242z" stroke="currentColor" stroke-width="1.5" stroke-linecap="round" stroke-linejoin="round"/>
</symbol>
<symbol id="frm_views_layout_builder_icon" viewBox="0 0 20 20" fill="none">
    <title>layout-builder</title>
    <rect x="1" y="2" width="4.667" height="8" rx="1" fill="#fff"/><rect x="7.666" y="2" width="4.667" height="8" rx="1" fill="#fff"/><rect x="14.334" y="2" width="4.667" height="8" rx="1" fill="#fff"/><rect x="1" y="12" width="18" height="7" rx="1" fill="#fff"/>
</symbol>
<symbol id="frm_views_coming_soon_calendar" viewBox="0 0 37 37" fill="none">
    <title>calendar</title>
    <path d="M27.125 8.875H3.875A3.879 3.879 0 000 12.75v19.375A3.879 3.879 0 003.875 36h23.25A3.879 3.879 0 0031 32.125V12.75a3.879 3.879 0 00-3.875-3.875zm1.292 23.25c0 .713-.58 1.292-1.292 1.292H3.875c-.713 0-1.292-.58-1.292-1.292V17.968h25.832v14.157h.002z" fill="#7389A6"/><path d="M7.751 5H6.46c-.713 0-1.292.578-1.292 1.292v5.168c0 .712.577 1.292 1.292 1.292H7.75c.713 0 1.292-.578 1.292-1.292V6.292C9.043 5.578 8.463 5 7.751 5zM24.542 5h-1.293c-.712 0-1.292.578-1.292 1.292v5.168c0 .712.58 1.29 1.292 1.29h1.293c.712 0 1.292-.578 1.292-1.292V6.292A1.293 1.293 0 0024.542 5z" fill="#B3C3DA"/><path d="M16.2 36.854l.581 1.16.581-1.16 1.833-3.659 3.659-1.833 1.16-.58-1.16-.582-3.659-1.833-1.833-3.658-.58-1.16-.582 1.16-1.833 3.658L10.71 30.2l-1.16.581 1.16.581 3.658 1.833 1.833 3.659zm14.413-1.063l1.059-2.119 2.119-1.06 1.162-.58-1.162-.582-2.119-1.06-1.06-2.118-.58-1.163-.582 1.163-1.06 2.119-2.118 1.059-1.163.581 1.163.582 2.119 1.059 1.059 2.119.581 1.162.582-1.162z" fill="#FFB72D" stroke="#fff" stroke-width="1.3"/>
</symbol>
<symbol id="frm_views_grid_icon" viewBox="0 0 10 10" fill="none">
    <title>grid</title>
    <path d="M5.765 1.155h3.214c.222 0 .402.18.402.402v2.678c0 .222-.18.402-.402.402H5.765a.402.402 0 01-.402-.402V1.557c0-.222.18-.402.402-.402zm-1.34 0H1.212a.402.402 0 00-.401.402v2.678c0 .222.18.402.401.402h3.215c.222 0 .401-.18.401-.402V1.557a.402.402 0 00-.401-.402zM.81 5.575v2.678c0 .222.18.402.401.402h3.215c.222 0 .401-.18.401-.402V5.574a.402.402 0 00-.401-.401H1.21a.402.402 0 00-.401.401zm4.955 3.08h3.214c.222 0 .402-.18.402-.402V5.574a.402.402 0 00-.402-.401H5.765a.402.402 0 00-.402.401v2.679c0 .222.18.402.402.402z" fill="#fff"/>
</symbol>
<symbol id="frm_views_table_icon" viewBox="0 0 10 10" fill="none">
    <title>table</title>
    <path d="M8.578 1.25H1.613a.804.804 0 00-.803.804v5.892c0 .444.36.804.803.804h6.965c.443 0 .803-.36.803-.804V2.054a.804.804 0 00-.803-.804zM4.56 7.679H1.88V6.07H4.56V7.68zM4.56 5H1.88V3.393H4.56V5zm3.75 2.679H5.63V6.07H8.31V7.68zM8.31 5H5.63V3.393H8.31V5z" fill="#fff"/>
</symbol>
<symbol id="frm_toggle_border_radius_options_icon" viewBox="0 0 22 22" fill="none">
    <title>border radius options</title>
   <path d="M7.25 1H4a3 3 0 00-3 3v3.25M21 7.25V4a3 3 0 00-3-3h-3.25M1 14.75V18a3 3 0 003 3h3.25M14.75 21H18a3 3 0 003-3v-3.25" stroke="#545F6E" stroke-linecap="round" stroke-linejoin="round"/>
</symbol>
<symbol id="frm_border_radius_corner_icon" viewBox="0 0 8 8" fill="none">
    <title>border radius corner</title>
    <path d="M.75 7H4a3 3 0 003-3V.75" stroke="#545F6E" stroke-linecap="round" stroke-linejoin="round"/>
</symbol>
<symbol id="frm_views_solid_folder_icon" width="19" height="19" fill="none" xmlns="http://www.w3.org/2000/svg">
    <title>folder icon</title>
    <path d="M17.417 15.042a1.584 1.584 0 0 1-1.584 1.583H3.168a1.583 1.583 0 0 1-1.583-1.583V3.958a1.583 1.583 0 0 1 1.583-1.583h3.958L8.71 4.75h7.125a1.583 1.583 0 0 1 1.583 1.583v8.709Z" fill="#fff"/>
</symbol>
<symbol id="frm_views_timeline_icon" viewBox="0 0 24 24" fill="none">
    <title>timeline icon</title>
    <path d="M11.75 19.5V4" stroke="white" stroke-width="1.5" stroke-linecap="round" stroke-linejoin="round"/><path d="M12 5.5H18V8.25V9.5H12" stroke="white" stroke-width="1.5" stroke-linecap="round" stroke-linejoin="round"/><path d="M12 14H18V15.25V18H12" stroke="white" stroke-width="1.5" stroke-linecap="round" stroke-linejoin="round"/><path d="M11.7501 13.5H6.20703L6.20714 12.25L6.20703 9.5H11.7501" stroke="white" stroke-width="1.5" stroke-linecap="round" stroke-linejoin="round"/>
</symbol>
<symbol id="frm-margin-top-bottom" viewbox="0 0 14 14"><path d="M1.25 4V4.01M13.25 4V4.01M1.25 7V7.01M13.25 7V7.01M7.25 7V7.01M1.25 10V10.01M13.25 10V10.01M0.999999 13.25L13.5 13.25M1 1.25H13.5" stroke="currentColor" stroke-width="1.5" stroke-linecap="round" stroke-linejoin="round"/></symbol>
<symbol id="frm-margin-left-right" viewbox="0 0 14 14"><path d="M7 7V7.01M4 1V1.01M4 13V13.01M10 1V1.01M10 13V13.01M7 1V1.01M7 13V13.01M0.75 13.25V0.75M13 13.25V0.75" stroke="currentColor" stroke-width="1.5" stroke-linecap="round" stroke-linejoin="round"/></symbol>
<symbol id="frm_drag_icon" viewBox="0 0 16 16" fill="none">
    <title>drag icon</title>
	<path d="M3.4 22.9998C3.4 23.336 3.3003 23.6647 3.1135 23.9443C2.9267 24.2238 2.6612 24.4417 2.35056 24.5704C2.03993 24.6991 1.69811 24.7327 1.36835 24.6671C1.03858 24.6015 0.735668 24.4396 0.497919 24.2019C0.26017 23.9641 0.0982607 23.6612 0.0326658 23.3315C-0.0329291 23.0017 0.000736579 22.6599 0.129406 22.3492C0.258075 22.0386 0.475968 21.7731 0.755531 21.5863C1.03509 21.3995 1.36377 21.2998 1.7 21.2998C2.7 21.2998 3.4 22.0998 3.4 22.9998ZM1.7 16.2998C1.36377 16.2998 1.03509 16.3995 0.755531 16.5863C0.475968 16.7731 0.258075 17.0386 0.129406 17.3492C0.000736579 17.6599 -0.0329291 18.0017 0.0326658 18.3315C0.0982607 18.6612 0.26017 18.9641 0.497919 19.2019C0.735668 19.4396 1.03858 19.6015 1.36835 19.6671C1.69811 19.7327 2.03993 19.6991 2.35056 19.5704C2.6612 19.4417 2.9267 19.2238 3.1135 18.9443C3.3003 18.6647 3.4 18.336 3.4 17.9998C3.4 16.9998 2.6 16.2998 1.7 16.2998ZM1.7 11.2998C1.36377 11.2998 1.03509 11.3995 0.755531 11.5863C0.475968 11.7731 0.258075 12.0386 0.129406 12.3492C0.000736579 12.6599 -0.0329291 13.0017 0.0326658 13.3315C0.0982607 13.6612 0.26017 13.9641 0.497919 14.2019C0.735668 14.4396 1.03858 14.6015 1.36835 14.6671C1.69811 14.7327 2.03993 14.6991 2.35056 14.5704C2.6612 14.4417 2.9267 14.2238 3.1135 13.9443C3.3003 13.6647 3.4 13.336 3.4 12.9998C3.4 11.9998 2.6 11.2998 1.7 11.2998ZM6.7 14.6998C7.03623 14.6998 7.36491 14.6001 7.64447 14.4133C7.92403 14.2265 8.14193 13.961 8.2706 13.6504C8.39926 13.3397 8.43293 12.9979 8.36734 12.6682C8.30174 12.3384 8.13983 12.0355 7.90208 11.7977C7.66433 11.56 7.36142 11.3981 7.03165 11.3325C6.70189 11.2669 6.36007 11.3005 6.04944 11.4292C5.7388 11.5579 5.4733 11.7758 5.2865 12.0553C5.0997 12.3349 5 12.6636 5 12.9998C5 13.9998 5.8 14.6998 6.7 14.6998ZM6.7 16.2998C6.36377 16.2998 6.03509 16.3995 5.75553 16.5863C5.47597 16.7731 5.25807 17.0386 5.12941 17.3492C5.00074 17.6599 4.96707 18.0017 5.03267 18.3315C5.09826 18.6612 5.26017 18.9641 5.49792 19.2019C5.73567 19.4396 6.03858 19.6015 6.36835 19.6671C6.69811 19.7327 7.03993 19.6991 7.35056 19.5704C7.6612 19.4417 7.9267 19.2238 8.1135 18.9443C8.3003 18.6647 8.4 18.336 8.4 17.9998C8.4 16.9998 7.6 16.2998 6.7 16.2998ZM6.7 21.2998C6.36377 21.2998 6.03509 21.3995 5.75553 21.5863C5.47597 21.7731 5.25807 22.0386 5.12941 22.3492C5.00074 22.6599 4.96707 23.0017 5.03267 23.3315C5.09826 23.6612 5.26017 23.9641 5.49792 24.2019C5.73567 24.4396 6.03858 24.6015 6.36835 24.6671C6.69811 24.7327 7.03993 24.6991 7.35056 24.5704C7.6612 24.4417 7.9267 24.2238 8.1135 23.9443C8.3003 23.6647 8.4 23.336 8.4 22.9998C8.4 21.9998 7.6 21.2998 6.7 21.2998Z" fill="#667085"/>
</defs>
</svg>