<svg xmlns="http://www.w3.org/2000/svg" width="207" height="55" fill="none" viewBox="0 0 207 55"><g filter="url(#a)"><rect width="203" height="51" x="1.9" y="1.3" fill="#fff" rx="10"/><path fill="#101828" d="M30.9 21q.7 0 1.5.3t1.4.9 1 1.7q.3 1 .3 2.6t-.3 2.7q-.3 1.2-.9 2-.5.9-1.3 1.3t-1.9.4a4 4 0 0 1-1.8-.4 4 4 0 0 1-2-2.8h1.8q0 .8.7 1.2.5.5 1.3.5 1.4 0 2-1.1t.8-3.2h-.1q-.3.6-.8.9a3 3 0 0 1-2.1.7q-1 0-1.9-.5T27.3 27a4 4 0 0 1-.5-2q0-1 .5-2t1.5-1.4a4 4 0 0 1 2-.5m0 1.4q-.7 0-1.2.4-.6.3-.8.9-.4.4-.4 1.2l.3 1.2q.3.6.9.9.4.3 1.2.3a2 2 0 0 0 1.6-.7l.5-.8q.3-.4.2-1t-.3-1.1l-.8-1zm15-1.8-3.8 14h-1.5l3.8-14zm10 .5v11.7h-1.7v-10l-2.9 2V23l3-1.9zM63.1 33q-1.3 0-2.3-.8a4 4 0 0 1-1.4-2q-.5-1.4-.5-3.2 0-2 .5-3.3.5-1.4 1.4-2 1-.7 2.3-.7 1.4 0 2.3.7 1 .6 1.5 2t.5 3.3-.5 3.2-1.5 2q-1 .8-2.3.8m0-1.6q1.2 0 1.9-1.1t.7-3.3q0-1.5-.3-2.5t-1-1.5q-.4-.6-1.3-.5-1.1 0-1.8 1.1t-.7 3.4q0 1.4.3 2.4t.9 1.5q.6.6 1.3.5M77.4 33a4 4 0 0 1-2.2-.5q-1-.6-1.4-1.6-.6-1-.5-2.4 0-1.2.5-2.3t1.4-1.6a4 4 0 0 1 2.1-.6 4 4 0 0 1 1.8.4q.8.4 1.3 1t.5 1.6h-1.6a2 2 0 0 0-.6-1.1q-.6-.4-1.3-.4t-1.3.3l-.8 1-.3 1.7q0 1 .3 1.6.3.8.8 1.1t1.3.4q.5 0 .8-.2l.7-.5.4-.8h1.6q0 .8-.5 1.5t-1.2 1a4 4 0 0 1-1.8.4m9 0a3.8 3.8 0 0 1-3.6-2.1q-.4-1-.4-2.4t.5-2.3a4 4 0 0 1 3.5-2.2A3.8 3.8 0 0 1 90 26q.5 1 .5 2.4t-.5 2.4a4 4 0 0 1-3.6 2.1m0-1.4q.8 0 1.4-.4t.7-1.1.3-1.6l-.3-1.5q-.2-.7-.7-1.1a2 2 0 0 0-1.4-.5 2 2 0 0 0-1.3.5q-.5.4-.8 1.1l-.2 1.5q0 .9.2 1.6t.8 1q.6.6 1.3.5M98 29.1v-5h1.7v8.7H98v-1.5h-.1q-.3.6-1 1.1t-1.6.5a2.6 2.6 0 0 1-2.5-1.5 4 4 0 0 1-.4-1.8V24h1.7v5.4q0 .9.5 1.4.4.6 1.3.5a2 2 0 0 0 1.7-1q.3-.4.3-1.2m4 7V24h1.7v1.4h.1l.4-.7.8-.6q.5-.3 1.3-.3a3 3 0 0 1 3.2 2.1q.5 1 .5 2.4 0 1.5-.5 2.4-.4 1-1.3 1.6t-1.9.5q-.8 0-1.3-.2t-.7-.7l-.5-.6V36zm1.7-7.7q0 1 .2 1.6t.8 1.1 1.3.4 1.2-.4q.5-.5.8-1.1t.3-1.6q0-.8-.3-1.6-.3-.7-.8-1a2 2 0 0 0-1.2-.4 2 2 0 0 0-1.3.3l-.8 1.1zm11.9 4.5a3.8 3.8 0 0 1-3.6-2.1q-.5-1-.5-2.4t.5-2.3a4 4 0 0 1 3.6-2.2A3.8 3.8 0 0 1 119 26q.4 1 .4 2.4t-.5 2.4a4 4 0 0 1-3.5 2.1m0-1.4q.8 0 1.3-.4l.8-1.1.2-1.6q0-.7-.2-1.5-.3-.7-.8-1.1a2 2 0 0 0-1.3-.5 2 2 0 0 0-1.4.5q-.5.4-.7 1.1l-.3 1.5q0 .9.3 1.6t.7 1q.5.6 1.4.5m7.6-4v5.3h-1.7V24h1.7v1.5q.4-.7 1-1.2a3 3 0 0 1 1.6-.4q1 0 1.6.4.7.3 1 1.1.4.7.4 1.8v5.6H127v-5.4q0-.9-.5-1.5t-1.3-.5q-.6 0-1 .3t-.8.7-.3 1.2m14.4-1.3-1.5.2q0-.3-.3-.5l-.6-.5-.9-.1q-.6 0-1.2.3-.4.3-.4.8t.3.7l1 .5 1.4.3q1.2.2 1.8.8t.6 1.5-.5 1.4a3 3 0 0 1-1.2 1q-.8.3-1.9.3-1.4 0-2.4-.6t-1.1-1.8l1.6-.2q.2.6.7 1 .4.3 1.2.3t1.4-.4.5-.8-.3-.7l-1-.4-1.5-.4q-1.2-.2-1.8-.9-.5-.6-.5-1.5t.4-1.3q.5-.6 1.2-1 .7-.3 1.7-.3 1.4 0 2.3.6t1 1.7m11.8 3V24h1.7v8.8h-1.6v-1.5h-.1q-.3.6-1 1.1t-1.6.5a2.6 2.6 0 0 1-2.5-1.5 4 4 0 0 1-.4-1.8V24h1.7v5.4q0 .9.5 1.4.5.6 1.3.5a2 2 0 0 0 1.7-1q.3-.4.3-1.2m10.6-3-1.6.2q0-.3-.3-.5l-.5-.5-1-.1q-.6 0-1.1.3t-.5.8q0 .4.3.7l1 .5 1.4.3q1.2.2 1.8.8t.6 1.5-.4 1.4a3 3 0 0 1-1.3 1q-.7.3-1.8.3-1.5 0-2.4-.6t-1.2-1.8l1.7-.2q0 .6.6 1 .5.3 1.2.3.9 0 1.4-.4.5-.3.5-.8t-.3-.7l-1-.4-1.4-.4q-1.2-.2-1.8-.9t-.6-1.5.4-1.3q.4-.6 1.2-1 .8-.3 1.8-.3 1.3 0 2.2.6.8.6 1 1.7m5.8 6.7q-1.3 0-2.3-.5-.8-.6-1.4-1.6t-.5-2.3q0-1.4.5-2.4t1.4-1.6 2.1-.6l1.5.3a4 4 0 0 1 2 2q.4.9.4 2.1v.6h-7v-1.3h5.3q0-.6-.2-1.1a2 2 0 0 0-2-1.2q-.6 0-1.2.4-.6.3-.8.9l-.3 1.2v1q0 .8.3 1.5t.9 1l1.3.2.9-.1q.4 0 .6-.4l.5-.7 1.6.3-.7 1.2q-.4.6-1.2.8t-1.7.3m8.9 0a3 3 0 0 1-3.2-2q-.5-1-.5-2.5 0-1.4.5-2.4t1.3-1.5 1.9-.6q.8 0 1.3.3l.7.6.5.7V21h1.8v11.7h-1.7v-1.4h-.1l-.5.6a3 3 0 0 1-2 1m.3-1.4a2 2 0 0 0 1.3-.4q.5-.4.7-1 .3-.7.3-1.7t-.3-1.6-.7-1a2 2 0 0 0-1.3-.4 2 2 0 0 0-1.2.4q-.6.4-.8 1t-.3 1.6.3 1.6.8 1q.5.5 1.2.5"/></g><defs><filter id="a" width="206.8" height="54.8" x="0" y="0" color-interpolation-filters="sRGB" filterUnits="userSpaceOnUse"><feFlood flood-opacity="0" result="BackgroundImageFix"/><feColorMatrix in="SourceAlpha" result="hardAlpha" values="0 0 0 0 0 0 0 0 0 0 0 0 0 0 0 0 0 0 127 0"/><feOffset dy=".6"/><feGaussianBlur stdDeviation=".6"/><feColorMatrix values="0 0 0 0 0.0627451 0 0 0 0 0.0941176 0 0 0 0 0.156863 0 0 0 0.06 0"/><feBlend in2="BackgroundImageFix" result="effect1_dropShadow_1596_8067"/><feColorMatrix in="SourceAlpha" result="hardAlpha" values="0 0 0 0 0 0 0 0 0 0 0 0 0 0 0 0 0 0 127 0"/><feOffset dy=".6"/><feGaussianBlur stdDeviation=".9"/><feColorMatrix values="0 0 0 0 0.0627451 0 0 0 0 0.0941176 0 0 0 0 0.156863 0 0 0 0.1 0"/><feBlend in2="effect1_dropShadow_1596_8067" result="effect2_dropShadow_1596_8067"/><feBlend in="SourceGraphic" in2="effect2_dropShadow_1596_8067" result="shape"/></filter></defs></svg>