<?xml version="1.0" encoding="UTF-8"?>
<svg xmlns="http://www.w3.org/2000/svg" width="153.856" height="36" viewBox="0 0 153.856 36">
  <g id="LOGO_NEW_DARK" data-name="LOGO NEW DARK" transform="translate(-706 -458)">
    <g id="NEW_SR_LOGO" data-name="NEW SR LOGO" transform="translate(714 465.493)">
      <rect id="Rectangle_16" data-name="Rectangle 16" width="36" height="36" rx="5" transform="translate(-8 -7.493)" fill="#5c24ff"></rect>
      <path id="Path_1" data-name="Path 1" d="M46.311,18.755l2.807,2.81a.2.2,0,0,1-.14.337H40.089a.121.121,0,0,1-.137-.137l-.006-8.912a.188.188,0,0,1,.322-.134l2.938,2.933a.109.109,0,0,0,.185-.006A6.5,6.5,0,0,0,43.9,7.7a6.271,6.271,0,0,0-5.255-2.944q-.123.009-.123-.117l0-3.991a.121.121,0,0,1,.148-.137c5.283.394,9.36,3.746,10.293,8.929a10.885,10.885,0,0,1-2.231,8.781.516.516,0,0,1-.168.145l-.211.114Q46.146,18.589,46.311,18.755Z" transform="translate(-28.331 -0.8)" fill="#fff"></path>
      <path id="Path_2" data-name="Path 2" d="M0,1.745V1.46l8.975.014a.124.124,0,0,1,.14.14l0,8.627a.251.251,0,0,1-.431.177L5.974,7.688a.133.133,0,0,0-.225.009C2.037,12.144,5,18.126,10.521,18.714a.168.168,0,0,1,.148.168v3.766a.123.123,0,0,1-.145.14A10.328,10.328,0,0,1,3.94,20.36Q-1.717,15.456.79,7.893A9.566,9.566,0,0,1,2.844,4.8a.151.151,0,0,0-.006-.234Z" transform="translate(-0.8 -1.481)" fill="#fff"></path>
    </g>
    <path id="Path_1344" data-name="Path 1344" d="M3.344.256A5.258,5.258,0,0,0,7.232-1.088a3.711,3.711,0,0,0,.992-2.576,3.784,3.784,0,0,0-1.344-2.8L5.9-7.376A1.392,1.392,0,0,1,5.312-8.4.956.956,0,0,1,5.6-9.088a2.046,2.046,0,0,1,1.472-.48,2.962,2.962,0,0,1,1.552.4l.544-2.576a6.211,6.211,0,0,0-2.5-.448,5.367,5.367,0,0,0-3.92,1.344,3.039,3.039,0,0,0-.928,2.192A3.386,3.386,0,0,0,3.136-6.064l.944.848A1.967,1.967,0,0,1,4.864-3.84a1.17,1.17,0,0,1-.352.88,1.994,1.994,0,0,1-1.456.448,3.514,3.514,0,0,1-2.144-.72L.32-.48A5.563,5.563,0,0,0,3.344.256ZM12.768-2.72,14.72-12h-3.2L8.976,0H15.5l.56-2.72ZM16.944,0h3.184l2.544-12H19.488ZM33.632-9.952A5.549,5.549,0,0,0,29.072-12H24.608L22.144-.432a13.856,13.856,0,0,0,4.672.688,8.276,8.276,0,0,0,5.92-2.064,6.6,6.6,0,0,0,1.888-4.928A5.372,5.372,0,0,0,33.632-9.952ZM30.256-3.664a3.933,3.933,0,0,1-2.88,1.04,7.483,7.483,0,0,1-1.536-.144l1.376-6.448h1.376a2.614,2.614,0,0,1,2.24,1.072,2.668,2.668,0,0,1,.464,1.6A3.9,3.9,0,0,1,30.256-3.664ZM44.912-9.28l.56-2.72h-8.1L34.832,0H43.04l.576-2.72H38.432l.48-2.224h4.736l.544-2.512H39.456L39.84-9.28ZM56.48-8.08c0-2.112-1.5-3.92-4.416-3.92H47.136L44.592,0H47.68l.672-3.136a8.034,8.034,0,0,0,2.1.224h.336L51.68,0h3.232l-1.1-3.616a5.066,5.066,0,0,0,1.312-.912A4.821,4.821,0,0,0,56.48-8.08ZM49.664-9.216H51.6c1.136,0,1.68.592,1.68,1.5A2.055,2.055,0,0,1,52.7-6.256a3.052,3.052,0,0,1-2.16.7,7.184,7.184,0,0,1-1.632-.176ZM12.32,5.92C12.32,3.808,10.816,2,7.9,2H2.976L.432,14H3.52l.672-3.136a8.034,8.034,0,0,0,2.1.224h.336L7.52,14h3.232l-1.1-3.616a5.066,5.066,0,0,0,1.312-.912A4.821,4.821,0,0,0,12.32,5.92ZM5.5,4.784H7.44c1.136,0,1.68.592,1.68,1.5a2.055,2.055,0,0,1-.576,1.456,3.052,3.052,0,0,1-2.16.7,7.184,7.184,0,0,1-1.632-.176ZM22.272,4.72,22.832,2h-8.1L12.192,14H20.4l.576-2.72H15.792l.48-2.224h4.736l.544-2.512H16.816L17.2,4.72ZM31.968,2,27.952,8.3,26.608,2H23.376L26.64,14.192h.384L35.44,2Zm7.92,12.256A6.681,6.681,0,0,0,44.72,12.3,6.86,6.86,0,0,0,46.736,7.36,5.431,5.431,0,0,0,45.68,4.08,5.853,5.853,0,0,0,40.8,1.808,6.95,6.95,0,0,0,35.872,3.76a6.782,6.782,0,0,0-2,4.944,5.466,5.466,0,0,0,1.056,3.28A6.031,6.031,0,0,0,39.888,14.256Zm.128-2.976a2.612,2.612,0,0,1-2.192-1.024,2.84,2.84,0,0,1-.5-1.7A4,4,0,0,1,38.4,5.728a3.11,3.11,0,0,1,2.208-.944A2.562,2.562,0,0,1,42.8,5.824a2.824,2.824,0,0,1,.5,1.68,4.008,4.008,0,0,1-1.072,2.848A3.124,3.124,0,0,1,40.016,11.28Zm10.72,0L52.688,2h-3.2L46.944,14h6.528l.56-2.72Zm8.928,2.976a6.052,6.052,0,0,0,4.384-1.664A6.608,6.608,0,0,0,65.824,9.1l1.5-7.1h-3.2L62.7,8.752a3.71,3.71,0,0,1-.944,1.888,2.577,2.577,0,0,1-1.824.7,1.87,1.87,0,0,1-1.632-.752A2.536,2.536,0,0,1,58,8.544L59.376,2h-3.2l-1.3,6.128a5.245,5.245,0,0,0,.752,4.272A4.875,4.875,0,0,0,59.664,14.256ZM68.272,14h3.2L73.44,4.72h2.512L76.528,2H68.3l-.576,2.72H70.24Zm6.784,0H78.24L80.784,2H77.6Zm11.936.256A6.681,6.681,0,0,0,91.824,12.3,6.86,6.86,0,0,0,93.84,7.36a5.431,5.431,0,0,0-1.056-3.28A5.853,5.853,0,0,0,87.9,1.808,6.95,6.95,0,0,0,82.976,3.76a6.782,6.782,0,0,0-2,4.944,5.466,5.466,0,0,0,1.056,3.28A6.031,6.031,0,0,0,86.992,14.256Zm.128-2.976a2.612,2.612,0,0,1-2.192-1.024,2.84,2.84,0,0,1-.5-1.7A4,4,0,0,1,85.5,5.728a3.11,3.11,0,0,1,2.208-.944A2.562,2.562,0,0,1,89.9,5.824a2.824,2.824,0,0,1,.5,1.68,4.008,4.008,0,0,1-1.072,2.848A3.124,3.124,0,0,1,87.12,11.28ZM104.72,2l-1.344,6.352L96.912,1.888h-.3L94.048,14h3.136l1.344-6.352,6.448,6.464h.3L107.856,2Z" transform="translate(752 475)" fill="#fff"></path>
  </g>
</svg>
